{"title":"[KST.VN]The.Debt.2011.720p.BRrip.x264.KSTE","uid":8162136,"size":1878303754,"categoryP":"video","categoryS":"hd___movies","magnet":"?xt=urn:btih:f5138d67e1018a4213e5f575c819dd67dd320bb9&amp;dn=%5BKST.VN%5DThe.Debt.2011.720p.BRrip.x264.KSTE&amp;tr=udp%3A%2F%2Ftracker.openbittorrent.com%3A80&amp;tr=udp%3A%2F%2Fopen.demonii.com%3A1337&amp;tr=udp%3A%2F%2Ftracker.coppersurfer.tk%3A6969&amp;tr=udp%3A%2F%2Fexodus.desync.com%3A6969","seeders":2,"leechers":0,"uploader":"lustfuzzy","files":1,"time":1361271495,"description":"NOTE: VIETNAMESE HARDCORE SUBTITLE!\n\n\nFormat                                   : Matroska\nFormat version                           : Version 2\nFile size                                : 1.75 GiB\nDuration                                 : 1h 53mn\nOverall bit rate                         : 2 202 Kbps\nEncoded date                             : UTC 2013-02-15 12:10:50\nWriting application                      : mkvmerge v5.8.0 ('No Sleep / Pillow') built on Sep  2 2012 15:37:04\nWriting library                          : libebml v1.2.3 + libmatroska v1.3.0\n\nVideo\nID                                       : 1\nFormat                                   : AVC\nFormat/Info                              : Advanced Video Codec\nFormat profile                           : &lt;a class=&quot;__cf_email__&quot; href=&quot;/cdn-cgi/l/email-protection&quot; data-cfemail=&quot;2961404e4169651d0718&quot;&gt;[email&amp;#160;protected]&lt;/a&gt;&lt;script cf-hash='f9e31' type=&quot;text/javascript&quot;&gt;\n/* &lt;![CDATA[ */!function(){try{var t=&quot;currentScript&quot;in document?document.currentScript:function(){for(var t=document.getElementsByTagName(&quot;script&quot;),e=t.length;e--;)if(t[e].getAttribute(&quot;cf-hash&quot;))return t[e]}();if(t&amp;&amp;t.previousSibling){var e,r,n,i,c=t.previousSibling,a=c.getAttribute(&quot;data-cfemail&quot;);if(a){for(e=&quot;&quot;,r=parseInt(a.substr(0,2),16),n=2;a.length-n;n+=2)i=parseInt(a.substr(n,2),16)^r,e+=String.fromCharCode(i);e=document.createTextNode(e),c.parentNode.replaceChild(e,c)}}}catch(u){}}();/* ]]&gt; */&lt;/script&gt;\nFormat settings, CABAC                   : Yes\nFormat settings, ReFrames                : 7 frames\nCodec ID                                 : V_MPEG4/ISO/AVC\nDuration                                 : 1h 53mn\nBit rate                                 : 1 816 Kbps\nWidth                                    : 1 280 pixels\nHeight                                   : 536 pixels\nDisplay aspect ratio                     : 2.40:1\nFrame rate mode                          : Constant\nFrame rate                               : 25.000 fps\nColor space                              : YUV\nChroma subsampling                       : 4:2:0\nBit depth                                : 8 bits\nScan type                                : Progressive\nBits/(Pixel*Frame)                       : 0.106\nStream size                              : 1.41 GiB (81%)\nWriting library                          : x264 core 129 r2230 \n\nAudio\nID                                       : 2\nFormat                                   : AC-3\nFormat/Info                              : Audio Coding 3\nMode extension                           : CM (complete main)\nFormat settings, Endianness              : Big\nCodec ID                                 : A_AC3\nDuration                                 : 1h 53mn\nBit rate mode                            : Constant\nBit rate                                 : 384 Kbps\nChannel(s)                               : 2 channels\nChannel positions                        : Front: L R\nSampling rate                            : 44.1 KHz\nBit depth                                : 16 bits\nCompression mode                         : Lossy\nStream size                              : 312 MiB (17%)\nDefault                                  : Yes\nForced                                   : No\n\n\n\n\nNOTE: VIETNAMESE HARDCORE SUBTITLE!\n\nTHUMBNAILS: http://i.imgur.com/bfDbrRq.jpg\n\nCAP: http://i.imgur.com/YKx9TDG.jpg\n","torrent":{"xt":"urn:btih:f5138d67e1018a4213e5f575c819dd67dd320bb9","amp;dn":"%5BKST.VN%5DThe.Debt.2011.720p.BRrip.x264.KSTE","amp;tr":["udp%3A%2F%2Ftracker.openbittorrent.com%3A80","udp%3A%2F%2Fopen.demonii.com%3A1337","udp%3A%2F%2Ftracker.coppersurfer.tk%3A6969","udp%3A%2F%2Fexodus.desync.com%3A6969"],"infoHash":"f5138d67e1018a4213e5f575c819dd67dd320bb9","infoHashBuffer":{"type":"Buffer","data":[245,19,141,103,225,1,138,66,19,229,245,117,200,25,221,103,221,50,11,185]},"announce":[],"urlList":[]}}